# xmcd CD database file
#
# Track frame offsets:
#	150
#	23843
#	50238
#	63315
#	86593
#	106892
#	139272
#	146987
#	157110
#	187370
#	196824
#
# Disc length: 2857 seconds
#
# Revision: 0
# Processed by: cddbd v1.5.2PL0 Copyright (c) Steve Scherf et al.
# Submitted via: CDex 1.51
#
DISCID=a90b270b
DTITLE=Cyro Baptista - Infinito
DYEAR=2009
DGENRE=Jazz
TTITLE0=Infinito
TTITLE1=Batida de côco
TTITLE2=In vitrous
TTITLE3=Kwanza
TTITLE4=Noia
TTITLE5=Adeus às filhas
TTITLE6=Coronation of a slave queen
TTITLE7=Cantor cuidadoso
TTITLE8=Pro flávio
TTITLE9=Blindman
TTITLE10=Infinito going
EXTD=YEAR: 2009
EXTT0=
EXTT1=
EXTT2=
EXTT3=
EXTT4=
EXTT5=
EXTT6=
EXTT7=
EXTT8=
EXTT9=
EXTT10=
PLAYORDER=
